<?xml version="1.0" encoding="utf-8"?>
<?xml-stylesheet type="text/xsl" href="rss1.xsl"?>
<rss version="2.0" xmlns:atom="http://www.w3.org/2005/Atom" xmlns:content="http://purl.org/rss/1.0/modules/content/" xmlns:dc="http://purl.org/dc/elements/1.1/" xmlns:media="http://search.yahoo.com/mrss/">
<channel>
 <title>Getty</title>
 <link>http://www.gettyimg.com/</link>
 <atom:link href="http://www.gettyimg.com/" rel="self" type="application/rss+xml" />

 
                <item>
                <title><![CDATA[【Requests】[REQ VID] - Miley Cyrus performance at Private Bash For Crypto Billionaire Mike Novogratz]]></title>
                <link><![CDATA[https://sharemania.us/threads/miley-cyrus-performance-at-private-bash-for-crypto-billionaire-mike-novogratz.230698/]]></link>
                <description><![CDATA[<article>
<blockquote class="messageText SelectQuoteContainer ugc baseHtml">
Hi guys!<br>
I don't know if there is a <b>full video </b>of that performance but <b>I'm so desperate looking for it</b>. <br>
Did some of you have it? <br>
Thank u soo much in advance!<br>
<br>
<img src="https://ic-cdn.flipboard.com/pagesix.com/854fe0d4d1a76202612bd6d3bf8257922a941da4/_medium.jpeg" class="bbCodeImage LbImage" alt="[​IMG]" data-url="https://ic-cdn.flipboard.com/pagesix.com/854fe0d4d1a76202612bd6d3bf8257922a941da4/_medium.jpeg" style="">
<div class="messageTextEndMarker">&nbsp;</div>
</blockquote>
</article>]]></description>
                <author><![CDATA[alessia1191]]></author>
                </item>

                
                <item>
                <title><![CDATA[【HD Live Performances】WEB-DL - Becky Hill - Radio 1s Live Lounge BBC WEB-DL.1080p-fstambuk]]></title>
                <link><![CDATA[https://sharemania.us/threads/becky-hill-radio-1s-live-lounge-bbc-web-dl-1080p-fstambuk.230697/]]></link>
                <description><![CDATA[<article>
<blockquote class="messageText SelectQuoteContainer ugc baseHtml">
<div style="text-align: center"><img src="https://i.imgur.com/QwQb6wo.png" class="bbCodeImage LbImage" alt="[​IMG]" data-url="https://i.imgur.com/QwQb6wo.png" style=""><br>
<img src="https://i.imgur.com/KaJIy10.gif" class="bbCodeImage LbImage" alt="[​IMG]" data-url="https://i.imgur.com/KaJIy10.gif" style=""><br>
<br>
Becky Hill performs her single 'Disconnect' and does an insane mashup of 'Shades of Love' by The Blessed Madonna and 'The Weekend' by Michael Gray in the Radio 1 Live Lounge. <br>
​</div>
<div class="ToggleTriggerAnchor bbCodeSpoilerContainer">
<button type="button" class="button bbCodeSpoilerButton ToggleTrigger Tooltip JsOnly" data-target="> .SpoilerTarget"><span>Spoiler: <span class="SpoilerTitle">Radio 1s Live Lounge</span></span></button>
<div class="SpoilerTarget bbCodeSpoilerText">
<div class="bbCodeBlock bbCodeCode">
<div class="type">Code:</div>
<pre>Format                                   : MPEG-4
Format profile                           : Base Media
Codec ID                                 : isom (isom/iso2/avc1/mp41)
File size                                : 472 MiB
Duration                                 : 5 min 47 s
Overall bit rate mode                    : Variable
Overall bit rate                         : 11.4 Mb/s
Collection                               : Radio 1's Live Lounge
Album                                    : Radio 1's Live Lounge
Album/Performer                          : BBC TV
Track name                               : Becky Hill
Grouping                                 : Music,Pop &amp; Chart,Performances &amp; Events
Performer                                : BBC Radio 1
Composer                                 : BBC iPlayer
Genre                                    : Music
ContentType                              : TV Show
Description                              : Becky Hill performs in the Radio 1 Live Lounge.
Recorded date                            : UTC 2023-10-19 17:52:07
Tagged date                              : UTC 2023-10-19 17:52:07
Copyright                                : 2023 British Broadcasting Corporation, all rights reserved
Cover                                    : Yes
Lyrics                                   : Becky Hill performs her single 'Disconnect' and does an insane mashup of 'Shades of Love' by The Blessed Madonna and 'The Weekend' by Michael Gray in the Radio 1 Live Lounge. /  / PLAY: https://www.bbc.co.uk/iplayer/episode/p0gd9fqz /  / INFO: https://www.bbc.co.uk/programmes/p0gd9fqz
Comment                                  : Becky Hill performs in the Radio 1 Live Lounge.
Part_ID                                  : p0gd9fqz
TVNetworkName                            : BBC Radio 1
LongDescription                          : Becky Hill performs her single 'Disconnect' and does an insane mashup of 'Shades of Love' by The Blessed Madonna and 'The Weekend' by Michael Gray in the Radio 1 Live Lounge. /  / PLAY: https://www.bbc.co.uk/iplayer/episode/p0gd9fqz /  / INFO: https://www.bbc.co.uk/programmes/p0gd9fqz

Video
ID                                       : 1
Format                                   : AVC
Format/Info                              : Advanced Video Codec
Format profile                           : High@L4.2
Format settings                          : CABAC / 4 Ref Frames
Format settings, CABAC                   : Yes
Format settings, Reference frames        : 4 frames
Codec ID                                 : avc1
Codec ID/Info                            : Advanced Video Coding
Duration                                 : 5 min 47 s
Bit rate mode                            : Variable
Bit rate                                 : 11.2 Mb/s
Maximum bit rate                         : 12.0 Mb/s
Width                                    : 1 920 pixels
Height                                   : 1 080 pixels
Display aspect ratio                     : 16:9
Frame rate mode                          : Constant
Frame rate                               : 50.000 FPS
Color space                              : YUV
Chroma subsampling                       : 4:2:0
Bit depth                                : 8 bits
Scan type                                : Progressive
Bits/(Pixel*Frame)                       : 0.108
Stream size                              : 466 MiB (99%)
Color range                              : Limited
Color primaries                          : BT.709
Transfer characteristics                 : BT.709
Matrix coefficients                      : BT.709
Codec configuration box                  : avcC

Audio
ID                                       : 2
Format                                   : AAC LC
Format/Info                              : Advanced Audio Codec Low Complexity
Codec ID                                 : mp4a-40-2
Duration                                 : 5 min 47 s
Bit rate mode                            : Variable
Bit rate                                 : 128 kb/s
Maximum bit rate                         : 132 kb/s / 132 kb/s
Channel(s)                               : 2 channels
Channel layout                           : L R
Sampling rate                            : 48.0 kHz
Frame rate                               : 46.875 FPS (1024 SPF)
Compression mode                         : Lossy
Stream size                              : 5.31 MiB (1%)
Language                                 : English
Default                                  : Yes
Alternate group                          : 1</pre>
</div><div style="text-align: center">​</div></div>
</div><div style="text-align: center">
<div class="bbCodeBlock bbCodeVfcHH HiddenContent">
<div class="attribution type">Hidden Content:</div>
<blockquote>You must reply before you can see the hidden data contained here.</blockquote>
</div><img src="https://ichef.bbci.co.uk/images/ic/1200x675/p0gg61tj.jpg" class="bbCodeImage LbImage" alt="[​IMG]" data-url="https://ichef.bbci.co.uk/images/ic/1200x675/p0gg61tj.jpg" style="">​</div>
<div class="messageTextEndMarker">&nbsp;</div>
</blockquote>
</article>]]></description>
                <author><![CDATA[fstambuk]]></author>
                </item>

                
                <item>
                <title><![CDATA[【Documentaries】WEB-RiP - Unstoppable Taylor Swift (2023) 1080p AMZN WEB-RiP DD+2.0 H.265]]></title>
                <link><![CDATA[https://sharemania.us/threads/unstoppable-taylor-swift-2023-1080p-amzn-web-rip-dd-2-0-h-265.230696/]]></link>
                <description><![CDATA[<article>
<blockquote class="messageText SelectQuoteContainer ugc baseHtml">
<div style="text-align: center"><span style="font-family: 'Georgia'"><img src="https://m.media-amazon.com/images/S/pv-target-images/daa2902e8e1dee373946ada4194e75b75310a59702be008c9630b7bdd64419c5.jpg" class="bbCodeImage LbImage" alt="[​IMG]" data-url="https://m.media-amazon.com/images/S/pv-target-images/daa2902e8e1dee373946ada4194e75b75310a59702be008c9630b7bdd64419c5.jpg" style=""> </span><br>
<b><span style="font-family: 'Georgia'"><span style="font-size: 22px">Unstoppable Taylor Swift (2023) Amazon Prime Documentary</span></span></b><br>
<span style="font-family: 'Georgia'"><span style="font-size: 15px">Ripped from Amazon Prime Video</span><br>
<br>
General<br>
<br>
Format : Matroska<br>
Format version : Version 4<br>
File size : 2.25 GiB<br>
Duration : 49 min 25 s<br>
Overall bit rate : 6 518 kb/s<br>
Frame rate : 25.000 FPS<br>
Movie name : Unstoppable Taylor Swift<br>
Encoded date : 2023-10-19 17:07:17 UTC<br>
Writing application : mkvmerge v68.0.0 ('The Curtain') 64-bit<br>
Writing library : libebml v1.4.2 + libmatroska v1.6.4<br>
Video<br>
ID : 1<br>
Format : HEVC<br>
Format/Info : High Efficiency Video Coding<br>
Format profile : Main@L4@Main<br>
Codec ID : V_MPEGH/ISO/HEVC<br>
Duration : 49 min 25 s<br>
Bit rate : 6 292 kb/s<br>
Width : 1 920 pixels<br>
Height : 1 080 pixels<br>
Display aspect ratio : 16:9<br>
Frame rate mode : Constant<br>
Frame rate : 25.000 FPS<br>
Standard : NTSC<br>
Color space : YUV<br>
Chroma subsampling : 4:2:0<br>
Bit depth : 8 bits<br>
Bits/(Pixel*Frame) : 0.121<br>
Stream size : 2.17 GiB (97%)<br>
Default : Yes<br>
Forced : No<br>
Color range : Limited<br>
Color primaries : BT.709<br>
Transfer characteristics : BT.709<br>
Matrix coefficients : BT.709<br>
Audio<br>
ID : 2<br>
Format : E-AC-3<br>
Format/Info : Enhanced AC-3<br>
Commercial name : Dolby Digital Plus<br>
Codec ID : A_EAC3<br>
Duration : 49 min 25 s<br>
Bit rate mode : Constant<br>
Bit rate : 224 kb/s<br>
Channel(s) : 2 channels<br>
Channel layout : L R<br>
Sampling rate : 48.0 kHz<br>
Frame rate : 31.250 FPS (1536 SPF)<br>
Compression mode : Lossy<br>
Stream size : 79.2 MiB (3%)<br>
Language : English<br>
Service kind : Complete Main<br>
Default : Yes<br>
Forced : No<br>
Text<br>
ID : 3<br>
Format : UTF-8<br>
Codec ID : S_TEXT/UTF8<br>
Codec ID/Info : UTF-8 Plain Text<br>
Duration : 48 min 27 s<br>
Bit rate : 104 b/s<br>
Frame rate : 0.311 FPS<br>
Count of elements : 905<br>
Stream size : 37.2 KiB (0%)<br>
Title : English [CC]<br>
Language : English<br>
Default : Yes<br>
Forced : No<br>
<br>
<br>
<br>
<div class="bbCodeBlock bbCodeVfcHH HiddenContent">
<div class="attribution type">Hidden Content:</div>
<blockquote>You must reply before you can see the hidden data contained here.</blockquote>
</div></span>​</div>
<div class="messageTextEndMarker">&nbsp;</div>
</blockquote>
</article>]]></description>
                <author><![CDATA[bspengeman]]></author>
                </item>

                </channel></rss>